<svg width="65" height="64" viewBox="0 0 65 64" fill="none" xmlns="http://www.w3.org/2000/svg">
<rect x="0.5" width="64" height="64" rx="16" fill="#EA417F"/>
<path d="M41.3399 22.1799L37.4099 22.9599L40.1499 26.4999L42.1199 26.0999L41.3399 22.1799ZM34.4699 23.5399L32.4999 23.9299L35.2499 27.4599L37.2099 27.0699L34.4699 23.5399ZM29.5699 24.4999L27.5999 24.9099L30.3499 28.4399L32.3099 28.0499L29.5699 24.4999ZM24.6599 25.4999L23.6799 25.6899C23.1603 25.7938 22.7031 26.0995 22.4088 26.5401C22.1144 26.9807 22.0069 27.5202 22.1099 28.0399L22.4999 29.9999L27.3999 29.0299L24.6599 25.4999ZM22.4999 29.9999V39.9999C22.4999 40.5304 22.7106 41.0391 23.0857 41.4141C23.4608 41.7892 23.9695 41.9999 24.4999 41.9999H40.4999C41.6099 41.9999 42.4999 41.1099 42.4999 39.9999V29.9999H22.4999Z" fill="white"/>
</svg>
