<svg width="65" height="64" viewBox="0 0 65 64" fill="none" xmlns="http://www.w3.org/2000/svg">
<rect x="0.5" width="64" height="64" rx="16" fill="#EA417F"/>
<g clip-path="url(#clip0_524_10116)">
<path d="M40.7929 21.0622L27.6692 24.9377C27.4028 25.0214 27.17 25.1879 27.0047 25.4129C26.8394 25.638 26.7502 25.9099 26.75 26.1891V36.911C26.3202 36.8067 25.8798 36.7527 25.4375 36.7502C23.2637 36.7502 21.5 37.9258 21.5 39.3752C21.5 40.8247 23.2637 42.0002 25.4375 42.0002C27.6113 42.0002 29.375 40.8247 29.375 39.3752V29.7907L39.875 26.7145V34.2864C39.4453 34.1818 39.0048 34.1277 38.5625 34.1252C36.3887 34.1252 34.625 35.3008 34.625 36.7502C34.625 38.1997 36.3887 39.3752 38.5625 39.3752C40.7363 39.3752 42.5 38.2001 42.5 36.7502V22.3127C42.4998 22.1067 42.4511 21.9036 42.3578 21.7199C42.2646 21.5361 42.1294 21.3769 41.9631 21.2552C41.7969 21.1334 41.6044 21.0525 41.4011 21.019C41.1978 20.9854 40.9894 21.0002 40.7929 21.0622Z" fill="white"/>
</g>
<defs>
<clipPath id="clip0_524_10116">
<rect width="21" height="21" fill="white" transform="translate(21.5 21)"/>
</clipPath>
</defs>
</svg>
