<svg width="65" height="64" viewBox="0 0 65 64" fill="none" xmlns="http://www.w3.org/2000/svg">
<rect x="0.5" width="64" height="64" rx="16" fill="#EA417F"/>
<path d="M22.75 32C22.75 29.4141 23.7772 26.9342 25.6057 25.1057C27.4342 23.2772 29.9141 22.25 32.5 22.25C35.0859 22.25 37.5658 23.2772 39.3943 25.1057C41.2228 26.9342 42.25 29.4141 42.25 32C42.25 34.5859 41.2228 37.0658 39.3943 38.8943C37.5658 40.7228 35.0859 41.75 32.5 41.75C29.9141 41.75 27.4342 40.7228 25.6057 38.8943C23.7772 37.0658 22.75 34.5859 22.75 32ZM28.9645 24.545C27.8702 25.0654 26.9035 25.8196 26.1325 26.7545L27.103 29.9105L28.612 30.413L31.75 28.028V26.402L28.9645 24.545ZM24.304 32.951C24.454 34.2485 24.904 35.456 25.5835 36.4985H28.4395L29.392 35.546L28.1575 31.841L26.6215 31.3295L24.304 32.951ZM30.829 40.079C31.9314 40.3059 33.0686 40.3059 34.171 40.079L35.356 37.415L34.4395 36.5H30.5605L29.6455 37.415L30.829 40.079ZM39.415 36.5C40.0883 35.4668 40.5204 34.2954 40.6795 33.0725L38.365 31.3355L36.8425 31.8425L35.608 35.5475L36.5605 36.5H39.415ZM38.845 26.7305C38.0777 25.8062 37.1185 25.06 36.034 24.5435L33.25 26.402V28.028L36.388 30.413L37.894 29.912L38.845 26.7305Z" fill="white"/>
</svg>
