<svg width="40" height="40" viewBox="0 0 40 40" fill="none" xmlns="http://www.w3.org/2000/svg">
<rect width="40" height="40" rx="16" fill="#F05B92"/>
<path fill-rule="evenodd" clip-rule="evenodd" d="M21.0158 15.0967C20.5057 16.5875 19.8208 18.094 18.9571 18.9576C18.0935 19.8212 16.5871 20.5062 15.0963 21.0162C15.0024 21.0483 14.9087 21.0797 14.8151 21.1105C14.5251 21.2057 14.2373 21.2942 13.9566 21.3762C13.8234 21.415 13.6919 21.4524 13.5624 21.4883C13.0204 21.6386 13.0204 22.648 13.5624 22.7983C13.6919 22.8342 13.8234 22.8716 13.9566 22.9104C14.2373 22.9924 14.5251 23.0809 14.8151 23.1761C14.9087 23.2069 15.0024 23.2383 15.0963 23.2704C16.5871 23.7804 18.0935 24.4654 18.9571 25.329C19.8208 26.1927 20.5057 27.6991 21.0158 29.1899C21.0479 29.2837 21.0793 29.3775 21.11 29.4711C21.2052 29.761 21.2938 30.0488 21.3757 30.3295C21.4146 30.4627 21.452 30.5943 21.4879 30.7238C21.6381 31.2657 22.6476 31.2657 22.7978 30.7238C22.8337 30.5943 22.8711 30.4627 22.91 30.3295C22.9919 30.0488 23.0805 29.761 23.1757 29.4711C23.2064 29.3775 23.2378 29.2837 23.27 29.1899C23.78 27.6991 24.4649 26.1927 25.3286 25.329C26.1922 24.4654 27.6986 23.7804 29.1894 23.2704C29.2833 23.2383 29.3771 23.2069 29.4706 23.1761C29.7606 23.0809 30.0484 22.9924 30.3291 22.9104C30.4623 22.8716 30.5939 22.8342 30.7234 22.7983C31.2653 22.648 31.2653 21.6386 30.7234 21.4883C30.5939 21.4524 30.4623 21.415 30.3291 21.3762C30.0484 21.2942 29.7606 21.2057 29.4706 21.1105C29.3771 21.0797 29.2833 21.0483 29.1894 21.0162C27.6986 20.5062 26.1922 19.8212 25.3286 18.9576C24.4649 18.094 23.78 16.5875 23.27 15.0967C23.2378 15.0029 23.2064 14.9091 23.1757 14.8155C23.0805 14.5256 22.9919 14.2378 22.91 13.9571C22.8711 13.8239 22.8337 13.6923 22.7978 13.5628C22.6476 13.0209 21.6381 13.0209 21.4879 13.5628C21.452 13.6923 21.4146 13.8239 21.3757 13.9571C21.2938 14.2378 21.2052 14.5256 21.11 14.8155C21.0793 14.9091 21.0479 15.0029 21.0158 15.0967Z" fill="white"/>
<path d="M13.3992 8.76963C13.2256 8.24866 12.4887 8.24866 12.315 8.76963L11.8803 10.0738C11.5959 10.9269 10.9264 11.5964 10.0733 11.8808L8.76914 12.3155C8.24818 12.4892 8.24818 13.2261 8.76915 13.3997L10.0733 13.8344C10.9264 14.1188 11.5959 14.7883 11.8803 15.6414L12.315 16.9456C12.4887 17.4665 13.2256 17.4665 13.3992 16.9456L13.8339 15.6414C14.1183 14.7883 14.7878 14.1188 15.6409 13.8344L16.9451 13.3997C17.4661 13.2261 17.4661 12.4892 16.9451 12.3155L15.6409 11.8808C14.7878 11.5964 14.1183 10.9269 13.8339 10.0738L13.3992 8.76963Z" fill="white"/>
</svg>
