<svg width="40" height="40" viewBox="0 0 40 40" fill="none" xmlns="http://www.w3.org/2000/svg">
<rect width="40" height="40" rx="16" fill="#F05B92"/>
<path fill-rule="evenodd" clip-rule="evenodd" d="M21.7756 7.95253C20.8234 6.90547 19.1766 6.90547 18.2244 7.95253L17.2093 9.06883C16.6781 9.65289 15.8937 9.93839 15.1114 9.83239L13.6162 9.62978C12.2137 9.43974 10.9522 10.4983 10.8958 11.9124L10.8357 13.4201C10.8043 14.2089 10.3869 14.9318 9.71948 15.3535L8.44385 16.1594C7.24736 16.9153 6.9614 18.5371 7.8272 19.6566L8.75026 20.8502C9.23322 21.4747 9.37817 22.2968 9.13793 23.0488L8.67876 24.4861C8.24808 25.8342 9.07148 27.2604 10.4544 27.5615L11.9287 27.8825C12.7001 28.0504 13.3395 28.587 13.6389 29.3175L14.211 30.7137C14.7477 32.0233 16.2951 32.5865 17.548 31.9283L18.8838 31.2265C19.5826 30.8593 20.4174 30.8593 21.1162 31.2265L22.452 31.9283C23.7049 32.5865 25.2523 32.0233 25.789 30.7137L26.3611 29.3175C26.6605 28.587 27.2999 28.0504 28.0713 27.8825L29.5456 27.5615C30.9285 27.2604 31.7519 25.8342 31.3212 24.4861L30.8621 23.0488C30.6218 22.2968 30.7668 21.4747 31.2497 20.8502L32.1728 19.6566C33.0386 18.5371 32.7526 16.9153 31.5561 16.1594L30.2805 15.3535C29.6131 14.9318 29.1957 14.2089 29.1643 13.4201L29.1042 11.9124C29.0478 10.4983 27.7863 9.43974 26.3838 9.62978L24.8886 9.83239C24.1063 9.93839 23.3219 9.65289 22.7907 9.06883L21.7756 7.95253ZM21.9794 17.0002C23.3715 17.0002 24.5 18.0995 24.5 19.4555C24.5 20.8249 23.9368 21.5115 21.5476 23.3215L20.4605 24.1451C20.1897 24.3503 19.8104 24.3503 19.5396 24.1451L18.4525 23.3215C16.0633 21.5115 15.5 20.8249 15.5 19.4555C15.5 18.0995 16.6286 17.0002 18.0207 17.0002C18.7666 17.0002 19.4293 17.3422 20 18.004C20.5708 17.3422 21.2335 17.0002 21.9794 17.0002Z" fill="white"/>
</svg>
