<svg width="65" height="64" viewBox="0 0 65 64" fill="none" xmlns="http://www.w3.org/2000/svg">
<rect x="0.5" width="64" height="64" rx="16" fill="#EA417F"/>
<g clip-path="url(#clip0_524_10121)">
<path d="M25.7778 24.4443H22.1111C21.775 24.4443 21.5 24.7193 21.5 25.0554V38.4999C21.5 38.836 21.775 39.111 22.1111 39.111H25.7778C26.1139 39.111 26.3889 38.836 26.3889 38.4999V25.0554C26.3889 24.7193 26.1139 24.4443 25.7778 24.4443ZM25.1667 28.111H22.7222V26.8888H25.1667V28.111ZM31.8889 24.4443H28.2222C27.8861 24.4443 27.6111 24.7193 27.6111 25.0554V38.4999C27.6111 38.836 27.8861 39.111 28.2222 39.111H31.8889C32.225 39.111 32.5 38.836 32.5 38.4999V25.0554C32.5 24.7193 32.225 24.4443 31.8889 24.4443ZM31.2778 28.111H28.8333V26.8888H31.2778V28.111Z" fill="white"/>
<path d="M36.1103 25.3891L32.836 27.0391C32.6918 27.1124 32.5824 27.2397 32.5315 27.3933C32.4807 27.5469 32.4926 27.7144 32.5647 27.8592L38.0647 38.7737C38.138 38.9179 38.2653 39.0273 38.4189 39.0781C38.5725 39.1289 38.7399 39.117 38.8848 39.045L42.1591 37.395C42.3033 37.3217 42.4127 37.1944 42.4636 37.0408C42.5144 36.8872 42.5025 36.7198 42.4304 36.5749L36.9304 25.6605C36.8571 25.5162 36.7298 25.4068 36.5762 25.356C36.4226 25.3052 36.2552 25.3171 36.1103 25.3891Z" fill="white"/>
<path d="M39.2222 38.5C39.2222 38.6621 39.1578 38.8175 39.0432 38.9321C38.9286 39.0468 38.7732 39.1111 38.6111 39.1111C38.449 39.1111 38.2936 39.0468 38.179 38.9321C38.0644 38.8175 38 38.6621 38 38.5C38 38.338 38.0644 38.1825 38.179 38.0679C38.2936 37.9533 38.449 37.8889 38.6111 37.8889C38.7732 37.8889 38.9286 37.9533 39.0432 38.0679C39.1578 38.1825 39.2222 38.338 39.2222 38.5Z" fill="white"/>
</g>
<defs>
<clipPath id="clip0_524_10121">
<rect width="22" height="19.5556" fill="white" transform="translate(21.5 22)"/>
</clipPath>
</defs>
</svg>
