<svg width="40" height="40" viewBox="0 0 40 40" fill="none" xmlns="http://www.w3.org/2000/svg">
<rect width="40" height="40" rx="16" fill="#F05B92"/>
<path d="M18.0129 23.5716C18.3313 23.5716 18.4468 23.6048 18.5632 23.6671C18.6796 23.7293 18.771 23.8207 18.8332 23.9371C18.8955 24.0535 18.9286 24.1689 18.9286 24.4873V29.0845C18.9286 29.4029 18.8955 29.5184 18.8332 29.6348C18.771 29.7512 18.6796 29.8426 18.5632 29.9048C18.4468 29.9671 18.3313 30.0002 18.0129 30.0002H15.1464C14.3504 30.0002 14.0617 29.9173 13.7707 29.7617C13.4797 29.6061 13.2513 29.3777 13.0957 29.0867C12.9401 28.7957 12.8572 28.507 12.8572 27.711V24.4873C12.8572 24.1689 12.8903 24.0535 12.9526 23.9371C13.0148 23.8207 13.1062 23.7293 13.2226 23.6671C13.339 23.6048 13.4545 23.5716 13.7729 23.5716H18.0129ZM26.2272 23.5716C26.5456 23.5716 26.6611 23.6048 26.7775 23.6671C26.8939 23.7293 26.9852 23.8207 27.0475 23.9371C27.1098 24.0535 27.1429 24.1689 27.1429 24.4873V27.6983C27.1429 28.4929 27.0604 28.7811 26.9053 29.0718C26.7503 29.3624 26.5227 29.5907 26.2325 29.7467C25.9423 29.9026 25.6544 29.986 24.8598 29.9885L21.788 29.998C21.4373 29.9991 21.1449 29.7473 21.0834 29.4143L21.0715 29.2859C21.0715 29.2852 21.0715 29.2845 21.0715 29.2837V24.4873C21.0715 24.1689 21.1046 24.0535 21.1669 23.9371C21.2291 23.8207 21.3205 23.7293 21.4369 23.6671C21.5533 23.6048 21.6687 23.5716 21.9871 23.5716H26.2272ZM18.0129 15.7145C18.3313 15.7145 18.4468 15.7477 18.5632 15.8099C18.6796 15.8722 18.771 15.9635 18.8332 16.0799C18.8955 16.1963 18.9286 16.3118 18.9286 16.6302V20.5131C18.9286 20.8315 18.8955 20.947 18.8332 21.0634C18.771 21.1798 18.6796 21.2711 18.5632 21.3334C18.4468 21.3956 18.3313 21.4288 18.0129 21.4288H12.3443C12.0259 21.4288 11.9104 21.3956 11.794 21.3334C11.6776 21.2711 11.5863 21.1798 11.524 21.0634C11.4618 20.947 11.4286 20.8315 11.4286 20.5131V18.0037C11.4286 17.2077 11.5115 16.919 11.6671 16.628C11.8228 16.337 12.0511 16.1086 12.3421 15.953C12.6332 15.7974 12.9218 15.7145 13.7178 15.7145H18.0129ZM26.2823 15.7145C27.0783 15.7145 27.3669 15.7974 27.6579 15.953C27.9489 16.1086 28.1773 16.337 28.333 16.628C28.4886 16.919 28.5715 17.2077 28.5715 18.0037V20.5131C28.5715 20.8315 28.5383 20.947 28.4761 21.0634C28.4138 21.1798 28.3225 21.2711 28.2061 21.3334C28.0897 21.3956 27.9742 21.4288 27.6558 21.4288H21.9871C21.6687 21.4288 21.5533 21.3956 21.4369 21.3334C21.3205 21.2711 21.2291 21.1798 21.1669 21.0634C21.1046 20.947 21.0715 20.8315 21.0715 20.5131V16.6302C21.0715 16.3118 21.1046 16.1963 21.1669 16.0799C21.2291 15.9635 21.3205 15.8722 21.4369 15.8099C21.5533 15.7477 21.6687 15.7145 21.9871 15.7145H26.2823ZM20 14.2859C13.9286 14.2859 13.2143 10.3574 14.6429 8.92879C16.0715 7.50022 20 8.21451 20 14.2859ZM20 14.2859C20 8.21451 23.9286 7.49723 25.3572 8.9258C26.7858 10.3544 26.0715 14.2859 20 14.2859Z" fill="white"/>
</svg>
