<svg width="40" height="40" viewBox="0 0 40 40" fill="none" xmlns="http://www.w3.org/2000/svg">
<path fill-rule="evenodd" clip-rule="evenodd" d="M36.6667 9.42841V18.2684C36.6667 19.2417 35.8767 20.0317 34.9033 20.0317H25.2083C24.235 20.0317 23.445 19.2417 23.445 18.2684V5.93008C23.445 4.95675 24.235 4.16675 25.2083 4.16675H31.5133C31.99 4.16675 32.4467 4.36008 32.78 4.70341L36.17 8.20175C36.4883 8.53008 36.6667 8.97008 36.6667 9.42841Z" stroke="#EA417F" stroke-width="1.5" stroke-linecap="round" stroke-linejoin="round"/>
<path d="M24.75 33.1183H27.465C31.2117 33.1183 34.25 30.0799 34.25 26.3333" stroke="#EA417F" stroke-width="1.5" stroke-linecap="round" stroke-linejoin="round"/>
<path d="M26.7852 35.1557L24.7502 33.1207L26.7852 31.0857" stroke="#EA417F" stroke-width="1.5" stroke-linecap="round" stroke-linejoin="round"/>
<path d="M15.25 6.88159H12.535C8.78833 6.88159 5.75 9.91993 5.75 13.6666" stroke="#EA417F" stroke-width="1.5" stroke-linecap="round" stroke-linejoin="round"/>
<path d="M13.215 4.84497L15.25 6.88164L13.215 8.91664" stroke="#EA417F" stroke-width="1.5" stroke-linecap="round" stroke-linejoin="round"/>
<path fill-rule="evenodd" clip-rule="evenodd" d="M16.5533 25.2309V34.0709C16.5533 35.0442 15.7633 35.8342 14.79 35.8342H5.09498C4.12165 35.8342 3.33331 35.0442 3.33331 34.0709V21.7309C3.33331 20.7575 4.12331 19.9675 5.09665 19.9675H11.4C11.8766 19.9675 12.3333 20.1609 12.6666 20.5042L16.0566 24.0025C16.375 24.3325 16.5533 24.7725 16.5533 25.2309Z" stroke="#EA417F" stroke-width="1.5" stroke-linecap="round" stroke-linejoin="round"/>
</svg>
