<svg width="48" height="48" viewBox="0 0 48 48" fill="none" xmlns="http://www.w3.org/2000/svg">
<path fill-rule="evenodd" clip-rule="evenodd" d="M17.3333 20.6667H12.3333C10.4917 20.6667 9 19.175 9 17.3333V12.3333C9 10.4917 10.4917 9 12.3333 9H17.3333C19.175 9 20.6667 10.4917 20.6667 12.3333V17.3333C20.6667 19.175 19.175 20.6667 17.3333 20.6667Z" stroke="#EA417F" stroke-width="1.5" stroke-linecap="round" stroke-linejoin="round"/>
<path fill-rule="evenodd" clip-rule="evenodd" d="M35.6666 20.6667H30.6666C28.825 20.6667 27.3333 19.175 27.3333 17.3333V12.3333C27.3333 10.4917 28.825 9 30.6666 9H35.6666C37.5083 9 39 10.4917 39 12.3333V17.3333C39 19.175 37.5083 20.6667 35.6666 20.6667Z" stroke="#EA417F" stroke-width="1.5" stroke-linecap="round" stroke-linejoin="round"/>
<path fill-rule="evenodd" clip-rule="evenodd" d="M17.3333 38.9999H12.3333C10.4917 38.9999 9 37.5083 9 35.6666V30.6666C9 28.8249 10.4917 27.3333 12.3333 27.3333H17.3333C19.175 27.3333 20.6667 28.8249 20.6667 30.6666V35.6666C20.6667 37.5083 19.175 38.9999 17.3333 38.9999Z" stroke="#EA417F" stroke-width="1.5" stroke-linecap="round" stroke-linejoin="round"/>
<path d="M33.1666 29V37.3333" stroke="#EA417F" stroke-width="1.5" stroke-linecap="round" stroke-linejoin="round"/>
<path d="M37.3333 33.1666H29" stroke="#EA417F" stroke-width="1.5" stroke-linecap="round" stroke-linejoin="round"/>
</svg>
